<svg width="24" height="24" viewBox="0 0 24 24" fill="none" xmlns="http://www.w3.org/2000/svg">
  <path d="M7.5 3C6.8 3 6.1 3.2 5.5 3.6C4.9 4 4.5 4.5 4.2 5.1C3.9 5.7 3.8 6.4 3.9 7.1C4 7.8 4.3 8.4 4.7 9C5.1 9.6 5.7 10 6.3 10.3C6.9 10.6 7.6 10.7 8.3 10.6C9 10.5 9.6 10.2 10.2 9.8C10.8 9.4 11.2 8.8 11.5 8.2C11.8 7.6 11.9 6.9 11.8 6.2C11.7 5.5 11.4 4.9 11 4.3C10.6 3.7 10 3.3 9.4 3C8.8 2.7 8.1 2.6 7.5 2.7V3ZM7.5 11.3C6.5 11.3 5.5 11.6 4.6 12.1C3.7 12.6 3 13.3 2.5 14.2C2 15.1 1.7 16.1 1.7 17.1C1.7 18.1 2 19.1 2.5 20C3 20.9 3.7 21.6 4.6 22.1C5.5 22.6 6.5 22.9 7.5 22.9C8.5 22.9 9.5 22.6 10.4 22.1C11.3 21.6 12 20.9 12.5 20C13 19.1 13.3 18.1 13.3 17.1C13.3 16.1 13 15.1 12.5 14.2C12 13.3 11.3 12.6 10.4 12.1C9.5 11.6 8.5 11.3 7.5 11.3ZM16.5 11.3C16.1 11.3 15.7 11.4 15.3 11.6C14.9 11.8 14.6 12.1 14.4 12.5C14.2 12.9 14.1 13.3 14.1 13.7C14.1 14.1 14.2 14.5 14.4 14.9C14.6 15.3 14.9 15.6 15.3 15.8C15.7 16 16.1 16.1 16.5 16.1C16.9 16.1 17.3 16 17.7 15.8C18.1 15.6 18.4 15.3 18.6 14.9C18.8 14.5 18.9 14.1 18.9 13.7C18.9 13.3 18.8 12.9 18.6 12.5C18.4 12.1 18.1 11.8 17.7 11.6C17.3 11.4 16.9 11.3 16.5 11.3ZM19.5 17.3C19.1 17.3 18.7 17.4 18.3 17.6C17.9 17.8 17.6 18.1 17.4 18.5C17.2 18.9 17.1 19.3 17.1 19.7C17.1 20.1 17.2 20.5 17.4 20.9C17.6 21.3 17.9 21.6 18.3 21.8C18.7 22 19.1 22.1 19.5 22.1C19.9 22.1 20.3 22 20.7 21.8C21.1 21.6 21.4 21.3 21.6 20.9C21.8 20.5 21.9 20.1 21.9 19.7C21.9 19.3 21.8 18.9 21.6 18.5C21.4 18.1 21.1 17.8 20.7 17.6C20.3 17.4 19.9 17.3 19.5 17.3ZM22.5 11.3C22.1 11.3 21.7 11.4 21.3 11.6C20.9 11.8 20.6 12.1 20.4 12.5C20.2 12.9 20.1 13.3 20.1 13.7C20.1 14.1 20.2 14.5 20.4 14.9C20.6 15.3 20.9 15.6 21.3 15.8C21.7 16 22.1 16.1 22.5 16.1C22.9 16.1 23.3 16 23.7 15.8C24.1 15.6 24.4 15.3 24.6 14.9C24.8 14.5 24.9 14.1 24.9 13.7C24.9 13.3 24.8 12.9 24.6 12.5C24.4 12.1 24.1 11.8 23.7 11.6C23.3 11.4 22.9 11.3 22.5 11.3Z" fill="white"/>
</svg>

