<svg width="18" height="13" viewBox="0 0 18 13" fill="none" xmlns="http://www.w3.org/2000/svg">
<path d="M13.5386 1.39062L9.04832 4.89494L4.45532 1.39062V1.39157L4.46087 1.39631V6.3033L8.99652 9.88338L13.5386 6.44158V1.39062Z" fill="#1F058F"/>
<path d="M14.7173 0.539789L13.5381 1.39219V6.44314L17.2487 3.59423V1.87806C17.2487 1.87806 16.7983 -0.573068 14.7173 0.539789Z" fill="#1F058F"/>
<path d="M13.5381 6.44266V12.9938H16.3821C16.3821 12.9938 17.1914 12.9105 17.2497 11.988V3.59375L13.5381 6.44266Z" fill="#1F058F"/>
<path d="M4.46108 13.0007V6.30552L4.45532 6.30078L4.46108 13.0007Z" fill="#1F058F"/>
<path d="M4.4551 1.39145L3.28234 0.543781C1.20135 -0.569076 0.75 1.8811 0.75 1.8811V3.59727L4.4551 6.29843V1.39145Z" fill="#1F058F"/>
<path d="M4.45532 1.39453V6.30152L4.46108 6.30626V1.39927L4.45532 1.39453Z" fill="#1F058F"/>
<path d="M0.75 3.60156V11.9958C0.807343 12.9193 1.61754 13.0017 1.61754 13.0017H4.46158L4.4551 6.30178L0.75 3.60156Z" fill="#1F058F"/>
</svg>
