<svg width="24" height="24" viewBox="0 0 24 24" fill="none" xmlns="http://www.w3.org/2000/svg">
  <path d="M21.5 11.1C21.5 10.5 21.4 9.9 21.3 9.4H12V12.8H17.4C17.2 13.8 16.5 14.7 15.5 15.3V17.5H18.6C20.3 15.9 21.5 13.7 21.5 11.1Z" fill="#4285F4"/>
  <path d="M12 21.5C14.7 21.5 16.9 20.6 18.6 17.5L15.5 15.3C14.6 16 13.4 16.4 12 16.4C9.4 16.4 7.2 14.6 6.4 12.1H3.2V14.4C4.9 18.5 8.2 21.5 12 21.5Z" fill="#34A853"/>
  <path d="M6.4 12.1C6.2 11.5 6.1 10.8 6.1 10C6.1 9.2 6.2 8.5 6.4 7.9V5.6H3.2C2.5 7 2 8.5 2 10C2 11.5 2.5 13 3.2 14.4L6.4 12.1Z" fill="#FBBC05"/>
  <path d="M12 3.6C13.4 3.6 14.7 4.1 15.7 5V5L18.4 2.3C16.9 0.9 14.7 0 12 0C8.2 0 4.9 3 3.2 7.1L6.4 9.4C7.2 6.9 9.4 3.6 12 3.6Z" fill="#EA4335"/>
</svg>

