<svg width="24" height="24" viewBox="0 0 24 24" fill="none" xmlns="http://www.w3.org/2000/svg">
  <path d="M15 3H9C5.7 3 3 5.7 3 9V15C3 18.3 5.7 21 9 21H15C18.3 21 21 18.3 21 15V9C21 5.7 18.3 3 15 3Z" fill="white"/>
  <path d="M15 9.5C15 11.4 13.4 13 11.5 13C9.6 13 8 11.4 8 9.5C8 7.6 9.6 6 11.5 6C13.4 6 15 7.6 15 9.5Z" fill="#EB001B"/>
  <path d="M16 14.5C16 16.4 14.4 18 12.5 18C10.6 18 9 16.4 9 14.5C9 12.6 10.6 11 12.5 11C14.4 11 16 12.6 16 14.5Z" fill="#F79E1B"/>
  <path d="M12.5 13C13.9 11.6 13.9 9.4 12.5 8C11.1 6.6 8.9 6.6 7.5 8C6.1 9.4 6.1 11.6 7.5 13C8.9 14.4 11.1 14.4 12.5 13Z" fill="#FF5F00"/>
</svg>

