<svg width="24" height="24" viewBox="0 0 24 24" fill="none" xmlns="http://www.w3.org/2000/svg">
  <path d="M21.5 5H2.5C1.4 5 0.5 5.9 0.5 7V17C0.5 18.1 1.4 19 2.5 19H21.5C22.6 19 23.5 18.1 23.5 17V7C23.5 5.9 22.6 5 21.5 5Z" fill="#0E4595"/>
  <path d="M9.5 14.5L10.5 9.5H12.5L11.5 14.5H9.5Z" fill="white"/>
  <path d="M15.5 9.6C15.1 9.5 14.5 9.3 13.8 9.3C12.1 9.3 10.9 10.2 10.9 11.5C10.9 12.5 11.8 13 12.5 13.3C13.2 13.6 13.4 13.8 13.4 14.1C13.4 14.5 12.9 14.7 12.4 14.7C11.7 14.7 11.3 14.6 10.7 14.3L10.4 14.2L10.1 16C10.6 16.2 11.4 16.4 12.3 16.4C14.1 16.4 15.3 15.5 15.3 14.1C15.3 13.3 14.8 12.7 13.8 12.3C13.2 12 12.8 11.8 12.8 11.5C12.8 11.2 13.1 10.9 13.8 10.9C14.4 10.9 14.8 11 15.1 11.2L15.3 11.3L15.5 9.6Z" fill="white"/>
  <path d="M17.5 14.5H19.2L20.5 9.5H18.8C18.3 9.5 17.9 9.7 17.7 10.2L15.5 14.5H17.5Z" fill="white"/>
  <path d="M7.5 9.5L5.5 13L5.3 12.2C4.9 11.1 4 10 3 9.3L4.8 14.5H6.8L9.8 9.5H7.5Z" fill="white"/>
  <path d="M4.5 9.5H1.5L1.4 9.7C3.4 10.2 4.8 11.5 5.3 13L4.8 10.2C4.7 9.8 4.6 9.6 4.5 9.5Z" fill="#F2AE14"/>
</svg>

