<svg width="24" height="24" viewBox="0 0 24 24" fill="none" xmlns="http://www.w3.org/2000/svg">
  <path d="M23.5 6.50708C23.5 6.50708 23.25 4.90708 22.45 4.10708C21.45 3.00708 20.35 3.00708 19.85 2.90708C16.55 2.70708 11.95 2.70708 11.95 2.70708C11.95 2.70708 7.35 2.70708 4.05 2.90708C3.55 3.00708 2.45 3.00708 1.45 4.10708C0.65 4.90708 0.4 6.50708 0.4 6.50708C0.4 6.50708 0.15 8.40708 0.15 10.2071V11.9071C0.15 13.7071 0.4 15.6071 0.4 15.6071C0.4 15.6071 0.65 17.2071 1.45 18.0071C2.45 19.1071 3.75 19.0071 4.35 19.2071C6.15 19.4071 11.95 19.5071 11.95 19.5071C11.95 19.5071 16.55 19.5071 19.85 19.3071C20.35 19.2071 21.45 19.2071 22.45 18.1071C23.25 17.3071 23.5 15.7071 23.5 15.7071C23.5 15.7071 23.75 13.8071 23.75 12.0071V10.3071C23.75 8.40708 23.5 6.50708 23.5 6.50708ZM9.55 14.8071V7.20708L15.85 11.0071L9.55 14.8071Z" fill="white"/>
</svg>

