<svg width="24" height="24" viewBox="0 0 24 24" fill="none" xmlns="http://www.w3.org/2000/svg">
<path d="M5.15837 11.4949C5.08489 12.8909 5.16936 14.3769 3.92213 15.3123C3.34164 15.7477 3 16.431 3 17.1566C3 18.1547 3.7818 19.0039 4.8 19.0039H19.2C20.2182 19.0039 21 18.1547 21 17.1566C21 16.431 20.6584 15.7477 20.0779 15.3123C18.8306 14.3769 18.9151 12.8909 18.8416 11.4949C18.6501 7.85613 15.6438 5.00391 12 5.00391C8.35617 5.00391 5.34988 7.85613 5.15837 11.4949Z" fill="#141414" stroke="#141414" stroke-width="1.5" stroke-linecap="round" stroke-linejoin="round"/>
<path d="M10.5 3.12891C10.5 3.95733 11.1716 5.00391 12 5.00391C12.8284 5.00391 13.5 3.95733 13.5 3.12891C13.5 2.30048 12.8284 2.00391 12 2.00391C11.1716 2.00391 10.5 2.30048 10.5 3.12891Z" fill="#141414" stroke="#141414" stroke-width="1.5"/>
<path d="M12 22.0039C13.6569 22.0039 15 20.6608 15 19.0039H9C9 20.6608 10.3431 22.0039 12 22.0039Z" fill="#141414" stroke="#141414" stroke-width="1.5" stroke-linecap="round" stroke-linejoin="round"/>
<path d="M22.2499 9.10547C22.2499 6.75826 20.3471 4.85547 17.9999 4.85547C15.6527 4.85547 13.7499 6.75826 13.7499 9.10547C13.7499 11.4527 15.6527 13.3555 17.9999 13.3555C20.3471 13.3555 22.2499 11.4527 22.2499 9.10547Z" fill="#141414" stroke="white" stroke-width="1.5"/>
</svg>
