<svg width="16" height="20" viewBox="0 0 16 20" fill="none" xmlns="http://www.w3.org/2000/svg">
<path d="M4.62814 10.6736H4.16918C2.68545 10.6736 1.94358 10.6736 1.62736 10.1844C1.31114 9.69529 1.61244 9.0138 2.21504 7.65083L4.02668 3.55323C4.57457 2.314 4.84852 1.69438 5.37997 1.34719C5.91142 1 6.58594 1 7.93496 1L10.0244 1C11.6632 1 12.4826 1 12.7916 1.53535C13.1007 2.0707 12.6942 2.78588 11.8811 4.21623L10.8092 6.10188C10.405 6.81295 10.2029 7.16849 10.2057 7.45952C10.2094 7.83775 10.4105 8.18619 10.7354 8.37704C10.9854 8.5239 11.3927 8.5239 12.2074 8.5239C13.2373 8.5239 13.7523 8.5239 14.0205 8.70217C14.3689 8.93379 14.5513 9.34819 14.4874 9.76318C14.4382 10.0826 14.0918 10.4656 13.399 11.2317L7.86386 17.3523C6.7767 18.5545 6.23311 19.1556 5.86807 18.9654C5.50303 18.7751 5.67833 17.9822 6.02893 16.3962L6.71567 13.2896C6.98263 12.082 7.11611 11.4782 6.7951 11.0759C6.47408 10.6736 5.85877 10.6736 4.62814 10.6736Z" stroke="#141B34" stroke-width="1.5" stroke-linejoin="round"/>
</svg>
