<svg width="64" height="48" viewBox="0 0 64 48" fill="none" xmlns="http://www.w3.org/2000/svg">
<path d="M30.8652 22.7927H16.9986L6.9319 28.7927C6.5319 29.0594 6.06523 28.6594 6.1319 28.1927L7.59857 22.726H3.1319C1.9319 22.726 0.865234 21.6594 0.865234 20.4594V3.12604C0.865234 1.92604 1.9319 0.859375 3.1319 0.859375H30.8652C32.0652 0.859375 33.1319 1.92604 33.1319 3.12604V20.5927C33.1319 21.8594 32.1319 22.7927 30.8652 22.7927Z" fill="#7F63FA"/>
<path d="M24.1326 39.1903H42.1993L55.3326 46.9903C55.8659 47.3236 56.4659 46.7903 56.3993 46.257L54.4659 39.1903H60.2659C61.8659 39.1903 63.1993 37.7903 63.1993 36.257V13.657C63.1993 12.057 61.7993 10.7236 60.2659 10.7236H24.2659C22.6659 10.7236 21.3326 12.1236 21.3326 13.657V36.3903C21.1326 37.9236 22.5326 39.1903 24.1326 39.1903Z" fill="#2D08D0"/>
<path d="M42.198 22.7266C43.4647 22.7266 44.398 23.7932 44.398 24.9266C44.398 26.0599 43.3314 27.1266 42.198 27.1266C40.9314 27.1266 39.998 26.0599 39.998 24.9266C39.998 23.7932 40.9314 22.7266 42.198 22.7266Z" fill="white"/>
<path d="M51.2654 22.7266C52.5321 22.7266 53.4654 23.7932 53.4654 24.9266C53.4654 26.0599 52.3988 27.1266 51.2654 27.1266C49.9988 27.1266 49.0654 26.0599 49.0654 24.9266C49.0654 23.7932 49.9988 22.7266 51.2654 22.7266Z" fill="white"/>
<path d="M33.0652 22.7266C34.3319 22.7266 35.2652 23.7932 35.2652 24.9266C35.2652 26.0599 34.1986 27.1266 33.0652 27.1266C31.7986 27.1266 30.8652 26.0599 30.8652 24.9266C30.8652 23.7932 31.7986 22.7266 33.0652 22.7266Z" fill="white"/>
</svg>
