<svg width="25" height="24" viewBox="0 0 25 24" fill="none" xmlns="http://www.w3.org/2000/svg">
<g clip-path="url(#clip0_390_3411)">
<path d="M24.2663 12.2743C24.2663 11.4586 24.2001 10.6384 24.059 9.83594H12.7402V14.4569H19.222C18.953 15.9473 18.0888 17.2657 16.8233 18.1034V21.1018H20.6903C22.9611 19.0118 24.2663 15.9252 24.2663 12.2743Z" fill="#4285F4"/>
<path d="M12.74 23.9974C15.9764 23.9974 18.7058 22.9348 20.6944 21.1005L16.8274 18.1021C15.7516 18.8341 14.3626 19.2486 12.7444 19.2486C9.61376 19.2486 6.95934 17.1365 6.00693 14.2969H2.01648V17.3878C4.05359 21.44 8.20278 23.9974 12.74 23.9974Z" fill="#34A853"/>
<path d="M6.00277 14.3027C5.50011 12.8123 5.50011 11.1985 6.00277 9.70813V6.61719H2.01674C0.314734 10.008 0.314734 14.0028 2.01674 17.3936L6.00277 14.3027Z" fill="#FBBC04"/>
<path d="M12.74 4.74966C14.4508 4.7232 16.1043 5.36697 17.3433 6.54867L20.7694 3.12262C18.6 1.0855 15.7207 -0.034466 12.74 0.000808666C8.20277 0.000808666 4.05359 2.55822 2.01648 6.61481L6.00252 9.70575C6.95052 6.86173 9.60935 4.74966 12.74 4.74966Z" fill="#EA4335"/>
</g>
<defs>
<clipPath id="clip0_390_3411">
<rect width="24" height="24" fill="white" transform="translate(0.5)"/>
</clipPath>
</defs>
</svg>
