<svg width="18" height="18" viewBox="0 0 18 18" fill="none" xmlns="http://www.w3.org/2000/svg">
<path d="M0.666382 4.0013C0.666382 2.42995 0.666382 1.64428 1.15454 1.15612C1.64269 0.667969 2.42837 0.667969 3.99972 0.667969C5.57106 0.667969 6.35674 0.667969 6.84489 1.15612C7.33305 1.64428 7.33305 2.42995 7.33305 4.0013V5.66797C7.33305 7.23932 7.33305 8.02499 6.84489 8.51315C6.35674 9.0013 5.57106 9.0013 3.99972 9.0013C2.42837 9.0013 1.64269 9.0013 1.15454 8.51315C0.666382 8.02499 0.666382 7.23932 0.666382 5.66797V4.0013Z" stroke="#B8B8B8" stroke-width="1.25"/>
<path d="M0.666382 14.8359C0.666382 14.0594 0.666382 13.6711 0.793249 13.3648C0.962406 12.9564 1.28686 12.632 1.69524 12.4628C2.00153 12.3359 2.38981 12.3359 3.16638 12.3359H4.83305C5.60962 12.3359 5.9979 12.3359 6.30419 12.4628C6.71257 12.632 7.03702 12.9564 7.20618 13.3648C7.33305 13.6711 7.33305 14.0594 7.33305 14.8359C7.33305 15.6125 7.33305 16.0008 7.20618 16.3071C7.03702 16.7155 6.71257 17.0399 6.30419 17.2091C5.9979 17.3359 5.60962 17.3359 4.83305 17.3359H3.16638C2.38981 17.3359 2.00153 17.3359 1.69524 17.2091C1.28686 17.0399 0.962406 16.7155 0.793249 16.3071C0.666382 16.0008 0.666382 15.6125 0.666382 14.8359Z" stroke="#B8B8B8" stroke-width="1.25"/>
<path d="M10.6664 12.3333C10.6664 10.762 10.6664 9.97631 11.1545 9.48816C11.6427 9 12.4284 9 13.9997 9C15.5711 9 16.3567 9 16.8449 9.48816C17.333 9.97631 17.333 10.762 17.333 12.3333V14C17.333 15.5713 17.333 16.357 16.8449 16.8452C16.3567 17.3333 15.5711 17.3333 13.9997 17.3333C12.4284 17.3333 11.6427 17.3333 11.1545 16.8452C10.6664 16.357 10.6664 15.5713 10.6664 14V12.3333Z" stroke="#B8B8B8" stroke-width="1.25"/>
<path d="M10.6664 3.16797C10.6664 2.3914 10.6664 2.00311 10.7932 1.69683C10.9624 1.28845 11.2869 0.963993 11.6952 0.794836C12.0015 0.667969 12.3898 0.667969 13.1664 0.667969H14.833C15.6096 0.667969 15.9979 0.667969 16.3042 0.794836C16.7126 0.963993 17.037 1.28845 17.2062 1.69683C17.333 2.00311 17.333 2.3914 17.333 3.16797C17.333 3.94454 17.333 4.33282 17.2062 4.63911C17.037 5.04749 16.7126 5.37194 16.3042 5.5411C15.9979 5.66797 15.6096 5.66797 14.833 5.66797H13.1664C12.3898 5.66797 12.0015 5.66797 11.6952 5.5411C11.2869 5.37194 10.9624 5.04749 10.7932 4.63911C10.6664 4.33282 10.6664 3.94454 10.6664 3.16797Z" stroke="#B8B8B8" stroke-width="1.25"/>
</svg>
