<svg width="20" height="20" viewBox="0 0 20 20" fill="none" xmlns="http://www.w3.org/2000/svg">
<path fill-rule="evenodd" clip-rule="evenodd" d="M14.756 5.24408C15.0814 5.56951 15.0814 6.09715 14.756 6.42259L5.58934 15.5893C5.2639 15.9147 4.73626 15.9147 4.41083 15.5893C4.08539 15.2638 4.08539 14.7362 4.41083 14.4107L13.5775 5.24408C13.9029 4.91864 14.4306 4.91864 14.756 5.24408Z" fill="#9B9999"/>
<path d="M14.3705 4.40948C14.6044 4.47774 14.9223 4.59742 15.1632 4.83834C15.4041 5.07926 15.5238 5.39711 15.5921 5.63102C15.6675 5.88963 15.7173 6.18215 15.7517 6.47637C15.8206 7.06697 15.8378 7.7602 15.8327 8.40481C15.8276 9.05442 15.7997 9.67816 15.7732 10.1379C15.76 10.3682 15.747 10.5586 15.7373 10.6919C15.7325 10.7586 15.7238 10.868 15.721 10.9042C15.6823 11.3628 15.2792 11.7037 14.8206 11.665C14.362 11.6264 14.0216 11.2233 14.0602 10.7647C14.0628 10.7317 14.0705 10.6342 14.075 10.5711C14.0842 10.4449 14.0966 10.263 14.1093 10.0421C14.1348 9.59928 14.1613 9.00484 14.1661 8.39175C14.171 7.77365 14.1535 7.15965 14.0963 6.66964C14.0675 6.42355 14.0098 6.16543 13.9706 6.03094C13.8361 5.99169 13.578 5.934 13.3319 5.90527C12.8419 5.84806 12.2279 5.83057 11.6098 5.83541C10.9967 5.8402 10.4022 5.86669 9.95942 5.89217C9.73854 5.90488 9.55659 5.91727 9.43039 5.92644C9.36732 5.93103 9.27017 5.93868 9.2372 5.94128C8.77862 5.97989 8.37515 5.6395 8.33649 5.18092C8.29783 4.72231 8.63827 4.31919 9.09688 4.28053L9.09878 4.28038C9.13673 4.27739 9.24403 4.26893 9.30959 4.26416C9.44291 4.25447 9.6333 4.24151 9.86366 4.22826C10.3234 4.2018 10.9471 4.17387 11.5967 4.16879C12.2413 4.16374 12.9346 4.1809 13.5252 4.24985C13.8194 4.2842 14.1119 4.33401 14.3705 4.40948Z" fill="#9B9999"/>
</svg>
