<svg width="16" height="18" viewBox="0 0 16 18" fill="none" xmlns="http://www.w3.org/2000/svg">
<path d="M1.33325 10.6667H3.32893C3.57406 10.6667 3.81582 10.722 4.03506 10.8281L5.73671 11.6514C5.95595 11.7575 6.19771 11.8127 6.44283 11.8127H7.31169C8.15203 11.8127 8.83325 12.4719 8.83325 13.2851C8.83325 13.3179 8.81073 13.3468 8.77807 13.3559L6.66065 13.9413C6.28081 14.0463 5.87408 14.0097 5.52075 13.8388L3.70167 12.9586" stroke="#1F058F" stroke-width="1.25" stroke-linecap="round" stroke-linejoin="round"/>
<path d="M8.83325 12.75L12.6606 11.5741C13.3391 11.3627 14.0725 11.6134 14.4975 12.2019C14.8048 12.6275 14.6797 13.2368 14.232 13.4951L7.96898 17.1088C7.57064 17.3386 7.1007 17.3947 6.66255 17.2647L1.33325 15.6833" stroke="#1F058F" stroke-width="1.25" stroke-linecap="round" stroke-linejoin="round"/>
<path d="M10.5 9.00008H8.83333C7.26198 9.00008 6.47631 9.00008 5.98816 8.51193C5.5 8.02377 5.5 7.2381 5.5 5.66675V4.00008C5.5 2.42873 5.5 1.64306 5.98816 1.1549C6.47631 0.666748 7.26198 0.666748 8.83333 0.666748H10.5C12.0713 0.666748 12.857 0.666748 13.3452 1.1549C13.8333 1.64306 13.8333 2.42873 13.8333 4.00008V5.66675C13.8333 7.2381 13.8333 8.02377 13.3452 8.51193C12.857 9.00008 12.0713 9.00008 10.5 9.00008Z" stroke="#1F058F" stroke-width="1.25" stroke-linecap="round" stroke-linejoin="round"/>
<path d="M8.83325 3.16675H10.4999" stroke="#1F058F" stroke-width="1.25" stroke-linecap="round" stroke-linejoin="round"/>
</svg>
