<svg width="49" height="49" viewBox="0 0 49 49" fill="none" xmlns="http://www.w3.org/2000/svg">
<path fill-rule="evenodd" clip-rule="evenodd" d="M24.125 46.625C35.723 46.625 45.125 37.223 45.125 25.625C45.125 14.027 35.723 4.625 24.125 4.625C12.527 4.625 3.125 14.027 3.125 25.625C3.125 29.3913 4.1165 32.9261 5.85271 35.9825L3.125 46.625L14.0973 44.0807C17.0771 45.7032 20.4934 46.625 24.125 46.625ZM24.125 43.3942C33.9387 43.3942 41.8942 35.4387 41.8942 25.625C41.8942 15.8113 33.9387 7.85577 24.125 7.85577C14.3113 7.85577 6.35577 15.8113 6.35577 25.625C6.35577 29.4141 7.54175 32.9262 9.56276 35.8103L7.97115 41.7788L14.0449 40.2604C16.909 42.2368 20.3819 43.3942 24.125 43.3942Z" fill="#BFC8D0"/>
<path d="M42.125 24.125C42.125 34.0661 34.0661 42.125 24.125 42.125C20.3332 42.125 16.8153 40.9526 13.914 38.9505L7.76136 40.4886L9.37364 34.4426C7.32639 31.521 6.125 27.9633 6.125 24.125C6.125 14.1839 14.1839 6.125 24.125 6.125C34.0661 6.125 42.125 14.1839 42.125 24.125Z" fill="url(#paint0_linear_1085_162)"/>
<path fill-rule="evenodd" clip-rule="evenodd" d="M24.125 45.125C35.723 45.125 45.125 35.723 45.125 24.125C45.125 12.527 35.723 3.125 24.125 3.125C12.527 3.125 3.125 12.527 3.125 24.125C3.125 27.8913 4.1165 31.4261 5.85271 34.4825L3.125 45.125L14.0973 42.5807C17.0771 44.2032 20.4934 45.125 24.125 45.125ZM24.125 41.8942C33.9387 41.8942 41.8942 33.9387 41.8942 24.125C41.8942 14.3113 33.9387 6.35577 24.125 6.35577C14.3113 6.35577 6.35577 14.3113 6.35577 24.125C6.35577 27.9141 7.54175 31.4262 9.56276 34.3103L7.97115 40.2788L14.0449 38.7604C16.909 40.7368 20.3819 41.8942 24.125 41.8942Z" fill="white"/>
<path d="M18.875 14.3692C18.3757 13.3663 17.6098 13.4551 16.836 13.4551C15.4531 13.4551 13.2969 15.1116 13.2969 18.1943C13.2969 20.7208 14.4102 23.4864 18.1616 27.6236C21.7821 31.6162 26.5391 33.6816 30.4883 33.6113C34.4375 33.541 35.25 30.1425 35.25 28.9949C35.25 28.4862 34.9344 28.2324 34.7169 28.1634C33.3711 27.5175 30.889 26.3141 30.3242 26.088C29.7595 25.8619 29.4646 26.1677 29.2813 26.3341C28.7691 26.8222 27.7539 28.2606 27.4063 28.5841C27.0587 28.9076 26.5404 28.7439 26.3248 28.6216C25.5312 28.3031 23.3794 27.346 21.6642 25.6833C19.543 23.6271 19.4185 22.9196 19.0189 22.2899C18.6991 21.7861 18.9337 21.477 19.0508 21.3419C19.5078 20.8145 20.1389 20.0004 20.4219 19.5958C20.7049 19.1912 20.4802 18.5769 20.3454 18.1943C19.7657 16.5489 19.2745 15.1715 18.875 14.3692Z" fill="white"/>
<defs>
<linearGradient id="paint0_linear_1085_162" x1="39.875" y1="10.625" x2="6.125" y2="42.125" gradientUnits="userSpaceOnUse">
<stop stop-color="#5BD066"/>
<stop offset="1" stop-color="#27B43E"/>
</linearGradient>
</defs>
</svg>
