<svg width="24" height="24" viewBox="0 0 24 24" fill="none" xmlns="http://www.w3.org/2000/svg">
<path d="M5.15837 11.4949C5.08489 12.8909 5.16936 14.3769 3.92213 15.3123C3.34164 15.7477 3 16.431 3 17.1566C3 18.1547 3.7818 19.0039 4.8 19.0039H19.2C20.2182 19.0039 21 18.1547 21 17.1566C21 16.431 20.6584 15.7477 20.0779 15.3123C18.8306 14.3769 18.9151 12.8909 18.8416 11.4949C18.6501 7.85613 15.6438 5.00391 12 5.00391C8.35617 5.00391 5.34988 7.85613 5.15837 11.4949Z" stroke="#B8B8B8" stroke-width="1.5" stroke-linecap="round" stroke-linejoin="round"/>
<path d="M10.5 3.12891C10.5 3.95733 11.1716 5.00391 12 5.00391C12.8284 5.00391 13.5 3.95733 13.5 3.12891C13.5 2.30048 12.8284 2.00391 12 2.00391C11.1716 2.00391 10.5 2.30048 10.5 3.12891Z" stroke="#B8B8B8" stroke-width="1.5"/>
<path d="M15 19.0039C15 20.6608 13.6569 22.0039 12 22.0039C10.3431 22.0039 9 20.6608 9 19.0039" stroke="#B8B8B8" stroke-width="1.5" stroke-linecap="round" stroke-linejoin="round"/>
</svg>
