<svg width="16" height="16" viewBox="0 0 16 16" fill="none" xmlns="http://www.w3.org/2000/svg">
<path d="M9.55713 2.26329C10.1896 1.63084 10.5058 1.31462 10.8561 1.1634C11.3608 0.945534 11.933 0.945534 12.4377 1.1634C12.788 1.31462 13.1043 1.63084 13.7367 2.26329C14.3692 2.89573 14.6854 3.21195 14.8366 3.56227C15.0545 4.06697 15.0545 4.63919 14.8366 5.14388C14.6854 5.4942 14.3692 5.81042 13.7367 6.44286L8.32885 11.8507C6.99649 13.1831 6.33031 13.8493 5.49594 14.244C4.66157 14.6387 3.724 14.7312 1.84887 14.9162L1 15L1.08376 14.1511C1.26878 12.276 1.36129 11.3384 1.75601 10.5041C2.15073 9.66969 2.81691 9.00351 4.14927 7.67115L9.55713 2.26329Z" stroke="#B8B8B8" stroke-width="1.25" stroke-linejoin="round"/>
</svg>
