<svg width="20" height="20" viewBox="0 0 20 20" fill="none" xmlns="http://www.w3.org/2000/svg">
<g id="Icon">
<g id="elements">
<path id="Subtract" fill-rule="evenodd" clip-rule="evenodd" d="M1.04102 9.9974C1.04102 14.9449 5.0518 18.9557 9.99935 18.9557C14.9469 18.9557 18.9577 14.9449 18.9577 9.9974C18.9577 5.04984 14.9469 1.03906 9.99935 1.03906C5.0518 1.03906 1.04102 5.04984 1.04102 9.9974ZM13.8958 6.88311C14.2351 7.1941 14.258 7.72124 13.947 8.0605L9.36364 13.0605C9.21006 13.2281 8.99469 13.3256 8.76745 13.3305C8.54021 13.3355 8.32082 13.2474 8.16009 13.0867L6.07676 11.0033C5.75132 10.6779 5.75132 10.1502 6.07676 9.82481C6.4022 9.49938 6.92983 9.49938 7.25527 9.82481L8.72317 11.2927L12.7184 6.9343C13.0294 6.59503 13.5565 6.57211 13.8958 6.88311Z" fill="#109368"/>
</g>
</g>
</svg>
