<svg width="20" height="20" viewBox="0 0 20 20" fill="none" xmlns="http://www.w3.org/2000/svg">
<path fill-rule="evenodd" clip-rule="evenodd" d="M1.04102 9.9974C1.04102 5.04985 5.0518 1.03906 9.99935 1.03906C14.9469 1.03906 18.9577 5.04985 18.9577 9.9974C18.9577 14.9449 14.9469 18.9557 9.99935 18.9557C5.0518 18.9557 1.04102 14.9449 1.04102 9.9974ZM9.16602 13.3307C9.16602 12.8705 9.53744 12.4974 9.99562 12.4974H10.0031C10.4613 12.4974 10.8327 12.8705 10.8327 13.3307C10.8327 13.791 10.4613 14.1641 10.0031 14.1641H9.99562C9.53744 14.1641 9.16602 13.791 9.16602 13.3307ZM9.16601 9.9974C9.16601 10.4576 9.53911 10.8307 9.99935 10.8307C10.4596 10.8307 10.8327 10.4576 10.8327 9.9974V6.66406C10.8327 6.20382 10.4596 5.83073 9.99935 5.83073C9.53911 5.83073 9.16602 6.20382 9.16602 6.66406L9.16601 9.9974Z" fill="#DC1827"/>
</svg>
