<svg width="20" height="20" viewBox="0 0 20 20" fill="none" xmlns="http://www.w3.org/2000/svg">
<g id="Icon">
<g id="elements">
<path id="Ellipse 1333" d="M17.9536 9.20155C18.207 9.55682 18.3337 9.73445 18.3337 9.9974C18.3337 10.2603 18.207 10.438 17.9536 10.7932C16.8152 12.3895 13.908 15.8307 10.0003 15.8307C6.09264 15.8307 3.18541 12.3895 2.04703 10.7932C1.79367 10.438 1.66699 10.2603 1.66699 9.9974C1.66699 9.73445 1.79367 9.55682 2.04703 9.20155C3.18541 7.60526 6.09264 4.16406 10.0003 4.16406C13.908 4.16406 16.8152 7.60526 17.9536 9.20155Z" stroke="#B8B8B8" stroke-width="1.25"/>
<path id="Ellipse 1334" d="M12.5004 10C12.5004 8.61929 11.3811 7.5 10.0004 7.5C8.61965 7.5 7.50037 8.61929 7.50037 10C7.50037 11.3807 8.61965 12.5 10.0004 12.5C11.3811 12.5 12.5004 11.3807 12.5004 10Z" stroke="#B8B8B8" stroke-width="1.25"/>
</g>
</g>
</svg>
