<svg width="24" height="24" viewBox="0 0 24 24" fill="none" xmlns="http://www.w3.org/2000/svg">
<g filter="url(#filter0_d_189_88)">
<path fill-rule="evenodd" clip-rule="evenodd" d="M18 9.6087L17.9999 9.64057C17.9998 9.654 17.9997 9.66743 17.9996 9.68086C17.9999 9.69653 18 9.71232 18 9.72826C18 12.2305 16.0505 14.4453 14.746 15.9275C14.3675 16.3576 14.0433 16.7259 13.8367 17.0217C13.102 18.0739 12.7143 19.2138 12.6122 19.6522C12.6122 19.9824 12.3381 20.25 12 20.25C11.6619 20.25 11.3878 19.9824 11.3878 19.6522C11.2857 19.2138 10.898 18.0739 10.1633 17.0217C9.95672 16.7259 9.6325 16.3576 9.25397 15.9275C7.94945 14.4453 6 12.2305 6 9.72826C6 9.71232 6.00015 9.69653 6.00045 9.68086C6.00015 9.65683 6 9.63278 6 9.6087C6 6.37302 8.68628 3.75 12 3.75C15.3137 3.75 18 6.37302 18 9.6087ZM12 11.7609C13.2849 11.7609 14.3265 10.7438 14.3265 9.48913C14.3265 8.23448 13.2849 7.21739 12 7.21739C10.7151 7.21739 9.67347 8.23448 9.67347 9.48913C9.67347 10.7438 10.7151 11.7609 12 11.7609Z" fill="#34A851"/>
<path d="M17.3291 6.91465C16.5944 5.53233 15.3121 4.47206 13.7628 4.00781L10.3169 7.92182C10.7406 7.48837 11.3381 7.21833 12.0001 7.21833C13.285 7.21833 14.3267 8.23542 14.3267 9.49007C14.3267 10.0019 14.1533 10.4742 13.8608 10.854L17.3291 6.91465Z" fill="#4285F5"/>
<path d="M9.3233 16.0071C9.30032 15.981 9.27712 15.9546 9.25372 15.928C8.39382 14.951 7.25371 13.6557 6.57642 12.1696L10.1579 8.10156C9.85403 8.48545 9.67322 8.96692 9.67322 9.48967C9.67322 10.7443 10.7148 11.7614 11.9997 11.7614C12.6506 11.7614 13.2391 11.5004 13.6613 11.0798L9.3233 16.0071Z" fill="#F9BB0E"/>
<path d="M7.41966 5.82422C6.53406 6.84514 6 8.16604 6 9.60877C6 9.63285 6.00015 9.6569 6.00045 9.68093C6.00015 9.6966 6 9.71239 6 9.72833C6 10.5812 6.22647 11.4006 6.57667 12.1691L10.1521 8.10795L7.41966 5.82422Z" fill="#E74335"/>
<path d="M13.7624 4.00691C13.2051 3.83991 12.6132 3.75 11.9998 3.75C10.1636 3.75 8.52002 4.5554 7.41943 5.82415L10.1519 8.10785L10.1579 8.10111C10.2076 8.03832 10.2605 7.97813 10.3166 7.9208L13.7624 4.00691Z" fill="#1A73E6"/>
</g>
<defs>
<filter id="filter0_d_189_88" x="-1.5" y="-0.75" width="27" height="27" filterUnits="userSpaceOnUse" color-interpolation-filters="sRGB">
<feFlood flood-opacity="0" result="BackgroundImageFix"/>
<feColorMatrix in="SourceAlpha" type="matrix" values="0 0 0 0 0 0 0 0 0 0 0 0 0 0 0 0 0 0 127 0" result="hardAlpha"/>
<feOffset dy="0.75"/>
<feGaussianBlur stdDeviation="0.75"/>
<feComposite in2="hardAlpha" operator="out"/>
<feColorMatrix type="matrix" values="0 0 0 0 0.0627451 0 0 0 0 0.0941176 0 0 0 0 0.156863 0 0 0 0.05 0"/>
<feBlend mode="normal" in2="BackgroundImageFix" result="effect1_dropShadow_189_88"/>
<feBlend mode="normal" in="SourceGraphic" in2="effect1_dropShadow_189_88" result="shape"/>
</filter>
</defs>
</svg>
