<svg width="25" height="24" viewBox="0 0 25 24" fill="none" xmlns="http://www.w3.org/2000/svg">
<g id="Loading circle">
<path id="Background" d="M23 12C23 13.3789 22.7284 14.7443 22.2007 16.0182C21.6731 17.2921 20.8996 18.4496 19.9246 19.4246C18.9496 20.3996 17.7921 21.1731 16.5182 21.7007C15.2443 22.2284 13.8789 22.5 12.5 22.5C11.1211 22.5 9.75574 22.2284 8.48182 21.7007C7.2079 21.1731 6.05039 20.3996 5.07538 19.4246C4.10036 18.4496 3.32694 17.2921 2.79926 16.0182C2.27159 14.7443 2 13.3789 2 12C2 10.6211 2.27159 9.25574 2.79927 7.98182C3.32694 6.7079 4.10037 5.55039 5.07538 4.57538C6.0504 3.60036 7.20791 2.82694 8.48183 2.29926C9.75575 1.77159 11.1211 1.5 12.5 1.5C13.8789 1.5 15.2443 1.77159 16.5182 2.29927C17.7921 2.82694 18.9496 3.60037 19.9246 4.57538C20.8996 5.5504 21.6731 6.70791 22.2007 7.98183C22.7284 9.25575 23 10.6211 23 12L23 12Z" stroke="#FAFAFA" stroke-width="3" stroke-linecap="round" stroke-linejoin="round"/>
<path id="Line" d="M12.5 1.5C13.8789 1.5 15.2443 1.77159 16.5182 2.29927C17.7921 2.82694 18.9496 3.60036 19.9246 4.57538C20.8996 5.55039 21.6731 6.70791 22.2007 7.98183C22.7284 9.25574 23 10.6211 23 12" stroke="#141414" stroke-width="3" stroke-linecap="round" stroke-linejoin="round"/>
</g>
</svg>
